<?xml version="1.0" encoding="utf-8"?>
<!-- Generator: Adobe Illustrator 22.1.0, SVG Export Plug-In . SVG Version: 6.00 Build 0)  -->
<svg version="1.1" id="Layer_1" xmlns="http://www.w3.org/2000/svg" xmlns:xlink="http://www.w3.org/1999/xlink" x="0px" y="0px"
	 viewBox="0 0 149.2 172.2" style="enable-background:new 0 0 149.2 172.2;" xml:space="preserve">
<style type="text/css">
	.st0{clip-path:url(#SVGID_2_);}
	.st1{clip-path:url(#SVGID_4_);fill:#2E3157;}
	.st2{clip-path:url(#SVGID_4_);fill:#E6E6E6;}
</style>
<g>
	<g>
		<defs>
			<rect id="SVGID_1_" x="-1" y="12" width="154.9" height="154.9"/>
		</defs>
		<clipPath id="SVGID_2_">
			<use xlink:href="#SVGID_1_"  style="overflow:visible;"/>
		</clipPath>
		<g class="st0">
			<defs>
				<rect id="SVGID_3_" x="-1" y="12" width="154.9" height="154.9"/>
			</defs>
			<clipPath id="SVGID_4_">
				<use xlink:href="#SVGID_3_"  style="overflow:visible;"/>
			</clipPath>
			<path class="st1" d="M147.3,86.7c0,40.1-32.5,72.6-72.6,72.6C34.5,159.3,2,126.8,2,86.7c0-40.1,32.5-72.6,72.6-72.6
				C114.8,14.1,147.3,46.6,147.3,86.7"/>
			<path class="st2" d="M61.6,103.8c-0.2,7.6-7.3,13.8-15.1,14c-9.2,0.2-16.9-7.2-17.4-16.8c-0.4-8.2,5.6-16.2,13.5-17.1
				c-2.4,6.3-3,12.3,1.8,17.5C49.3,106.7,55.1,106.8,61.6,103.8"/>
			<path class="st2" d="M120.2,57c-2,0-4.1,0.1-6.1,0c-2.1-0.2-2.7,0.6-2.7,2.7c0.1,16.3,0.1,32.6,0,48.9c0,1.5-0.1,2.9-0.3,4.3
				c-0.6,4.2-4.5,5.9-7.8,3.3c-1.8-1.4-3.2-3.4-4.4-5.4c-8.4-14.7-16.7-29.5-25-44.2c-0.5-1-1.1-1.9-2.1-2.7v51.5h8.7
				c0,0.3,0,0.6-0.1,0.9h-19c0-0.3-0.1-0.5-0.1-0.8c1.3-0.1,2.6-0.3,4-0.4c1.4-0.1,2.9,0,4.6,0c0-1,0.1-1.9,0.1-2.7
				c0-17.5,0-35,0.1-52.5c0-2.3-0.7-3-2.9-2.8c-1.9,0.1-3.9,0-5.8,0c0-0.3-0.1-0.6-0.1-0.9c0.4-0.2,0.9-0.5,1.3-0.5
				c3.6,0,7.3,0.1,10.9,0.2c3.4,0.1,5.6,1.8,7.2,4.6c5.2,9.1,10.5,18.2,15.8,27.4c3.9,6.7,7.7,13.5,11.6,20.3c0.3,0.5,0.7,1,1.4,2.1
				c0.1-1.3,0.2-2.1,0.2-2.8c0-15.8,0-31.6,0.1-47.4c0-2.4-0.7-3.2-3-3c-1.9,0.2-3.9,0-5.8-0.3C102.6,55.3,118.5,55.3,120.2,57"/>
		</g>
	</g>
</g>
</svg>
